<?xml version="1.0" standalone="no"?>
<!DOCTYPE svg PUBLIC "-//W3C//DTD SVG 20010904//EN"
 "http://www.w3.org/TR/2001/REC-SVG-20010904/DTD/svg10.dtd">
<svg version="1.0" xmlns="http://www.w3.org/2000/svg"
 width="600.000000pt" height="600.000000pt" viewBox="0 0 600.000000 600.000000"
 preserveAspectRatio="xMidYMid meet">
<metadata>
Created by potrace 1.14, written by Peter Selinger 2001-2017
</metadata>
<g transform="translate(0.000000,600.000000) scale(0.100000,-0.100000)"
fill="#000000" stroke="none">
<path d="M3010 5650 c0 -6 7 -10 15 -10 8 0 15 2 15 4 0 2 -7 6 -15 10 -8 3
-15 1 -15 -4z"/>
<path d="M2755 4798 c-44 -5 -99 -15 -123 -23 -23 -8 -40 -10 -37 -5 4 6 -7 7
-27 3 -63 -12 -83 -19 -80 -29 4 -12 -88 -35 -112 -28 -13 4 -16 2 -11 -6 4
-7 2 -10 -6 -9 -19 4 -126 -29 -174 -53 -22 -11 -60 -38 -85 -58 -25 -21 -85
-63 -134 -95 -52 -33 -140 -106 -211 -174 -67 -64 -136 -127 -154 -141 -17
-14 -34 -36 -36 -50 -3 -14 -14 -32 -24 -40 -11 -8 -43 -62 -71 -120 -27 -58
-66 -131 -86 -163 -19 -32 -37 -65 -39 -75 -2 -9 -11 -37 -19 -61 -12 -33 -13
-41 -3 -32 8 6 17 7 21 3 4 -4 5 5 1 20 -5 20 -2 31 14 45 12 9 21 22 21 28 0
5 14 30 30 55 17 25 37 66 44 91 18 61 54 129 67 129 16 0 2 -35 -63 -155 -32
-60 -66 -130 -74 -155 -17 -50 -32 -72 -45 -65 -4 3 -28 -36 -53 -87 -25 -51
-45 -84 -46 -73 -1 28 -49 -103 -52 -142 -1 -17 -5 -30 -9 -27 -14 8 -28 -23
-34 -76 -3 -30 -10 -57 -14 -60 -7 -4 -22 -79 -24 -122 -1 -10 -5 -18 -9 -18
-9 0 -36 -91 -42 -145 -2 -22 -10 -61 -16 -86 -9 -34 -9 -56 0 -88 6 -24 8
-66 4 -100 -7 -65 10 -132 53 -211 14 -25 36 -81 51 -125 17 -54 27 -73 32
-61 5 15 8 14 18 -9 7 -15 15 -25 18 -22 6 5 -24 68 -36 77 -4 3 -10 23 -14
45 -4 22 -5 38 -2 35 15 -16 64 -154 59 -168 -4 -10 -2 -13 2 -9 5 4 20 -23
32 -60 33 -95 37 -115 12 -63 -12 25 -25 47 -29 50 -4 3 -11 16 -15 30 -9 30
-36 72 -42 66 -5 -4 26 -113 38 -136 5 -8 24 -56 43 -107 47 -123 54 -137 170
-303 159 -229 205 -268 471 -403 125 -63 202 -98 228 -103 9 -1 30 -12 46 -23
73 -52 475 -182 559 -181 26 1 26 1 7 13 -25 15 -183 55 -252 65 -37 5 -50 10
-45 19 6 9 17 9 49 -2 115 -40 763 -87 832 -61 19 7 22 6 16 -4 -16 -27 203 8
450 72 96 24 190 72 265 133 59 49 74 71 84 127 5 29 19 48 63 85 31 27 75 65
97 86 22 20 44 37 49 37 14 0 148 111 200 165 46 48 60 73 35 60 -7 -4 -6 -1
2 7 8 7 45 58 82 113 66 97 69 105 117 283 28 100 58 221 67 267 11 53 23 85
31 85 7 0 10 -7 6 -17 -4 -11 -3 -14 5 -9 7 4 12 3 12 -3 0 -5 -4 -13 -10 -16
-5 -3 -10 -32 -11 -63 -1 -41 -3 -50 -8 -32 -7 23 -8 23 -14 5 -3 -11 -9 -38
-12 -60 -4 -22 -16 -71 -28 -108 -15 -48 -18 -70 -10 -75 6 -4 13 -16 15 -27
3 -13 12 4 26 49 25 76 27 90 12 81 -13 -8 -12 -2 4 59 10 39 14 45 20 30 8
-18 8 -18 17 3 7 20 39 217 39 239 0 5 -7 0 -15 -10 -15 -20 -15 -20 -15 0 0
28 21 98 31 105 26 16 38 405 15 471 -9 24 -10 38 -3 41 15 5 -12 107 -28 107
-8 0 -13 13 -13 33 0 17 -9 56 -21 86 -11 30 -18 58 -15 63 3 5 0 17 -8 26
-17 20 -48 100 -48 124 0 8 -6 21 -14 27 -8 7 -22 42 -31 79 -42 163 -47 175
-129 282 -86 111 -171 200 -192 200 -7 0 -30 20 -51 44 -21 24 -62 60 -90 81
-29 20 -53 39 -53 42 0 2 5 1 10 -2 6 -3 10 -2 10 4 0 15 -59 43 -76 37 -8 -3
-33 6 -54 20 -43 28 -54 42 -19 24 11 -7 33 -14 47 -16 l27 -4 -30 25 c-39 33
-269 147 -273 135 -5 -15 -83 31 -80 47 2 11 -36 31 -137 70 -77 31 -151 57
-165 58 -14 1 -32 4 -40 8 -8 3 -35 8 -60 11 -34 5 -41 4 -30 -5 12 -8 9 -9
-10 -3 -14 3 -30 10 -36 15 -27 21 -207 49 -322 49 -73 0 -101 -4 -132 -20
-39 -20 -79 -29 -52 -11 29 18 -13 27 -93 19z m303 -5 c-10 -2 -26 -2 -35 0
-10 3 -2 5 17 5 19 0 27 -2 18 -5z m-40 -20 c-10 -2 -26 -2 -35 0 -10 3 -2 5
17 5 19 0 27 -2 18 -5z m-210 -10 c-10 -2 -28 -2 -40 0 -13 2 -5 4 17 4 22 1
32 -1 23 -4z m-81 -9 c-3 -3 -12 -4 -19 -1 -8 3 -5 6 6 6 11 1 17 -2 13 -5z
m-70 -10 c-3 -3 -12 -4 -19 -1 -8 3 -5 6 6 6 11 1 17 -2 13 -5z m273 -23 c18
-6 4 -10 -55 -15 -44 -4 -108 -11 -142 -15 -34 -4 -67 -4 -74 -1 -12 8 44 19
131 27 30 2 57 7 59 9 6 6 53 3 81 -5z m-405 -6 c-5 -3 -30 -9 -55 -14 -40 -9
-43 -8 -26 5 11 8 36 14 55 13 20 0 32 -2 26 -4z m513 -2 c-10 -2 -26 -2 -35
0 -10 3 -2 5 17 5 19 0 27 -2 18 -5z m80 0 c-10 -2 -28 -2 -40 0 -13 2 -5 4
17 4 22 1 32 -1 23 -4z m210 -23 c16 -8 -86 -1 -143 10 -26 5 -9 6 45 3 47 -3
91 -9 98 -13z m219 14 c-3 -3 -12 -4 -19 -1 -8 3 -5 6 6 6 11 1 17 -2 13 -5z
m86 -20 c26 -9 50 -20 53 -25 3 -5 -16 -1 -43 10 -26 10 -57 21 -68 24 -13 3
-15 5 -4 6 8 0 36 -6 62 -15z m-1008 -3 c-6 -5 -28 -12 -50 -15 l-40 -6 40 14
c50 17 62 19 50 7z m-110 -31 c-25 -11 -75 -13 -58 -2 6 4 26 8 45 9 26 1 29
0 13 -7z m942 4 c-3 -3 -12 -4 -19 -1 -8 3 -5 6 6 6 11 1 17 -2 13 -5z m-1209
-20 c-16 -8 -28 -19 -28 -23 0 -5 -10 -11 -22 -15 -13 -3 -36 -18 -53 -33 -32
-30 -140 -103 -152 -103 -12 0 41 51 67 65 14 7 41 29 60 49 19 19 45 36 57
36 12 0 25 5 28 11 7 11 43 28 60 28 6 0 -2 -7 -17 -15z m1324 -3 c36 -11 75
-24 85 -31 15 -9 14 -10 -7 -4 -14 4 -61 18 -105 30 -44 12 -71 23 -60 23 11
1 50 -8 87 -18z m-1255 3 c-3 -3 -12 -4 -19 -1 -8 3 -5 6 6 6 11 1 17 -2 13
-5z m1539 -120 c18 -14 18 -14 -6 -3 -31 14 -36 19 -24 19 6 0 19 -7 30 -16z
m-1897 -51 c-12 -15 -12 -16 4 -10 11 4 16 3 12 -4 -4 -6 -13 -8 -19 -6 -7 3
-13 -1 -13 -9 0 -7 5 -11 11 -8 6 3 -11 -15 -39 -40 -58 -53 -84 -62 -36 -12
18 19 30 39 27 44 -3 6 8 22 26 36 38 30 46 33 27 9z m-79 -57 c0 -2 -8 -10
-17 -17 -16 -13 -17 -12 -4 4 13 16 21 21 21 13z m-40 -30 c0 -2 -8 -10 -17
-17 -16 -13 -17 -12 -4 4 13 16 21 21 21 13z m2581 -253 c13 -16 12 -17 -3 -4
-10 7 -18 15 -18 17 0 8 8 3 21 -13z m59 -58 c13 -14 21 -25 18 -25 -2 0 -15
11 -28 25 -13 14 -21 25 -18 25 2 0 15 -11 28 -25z m-2884 -92 c-8 -15 -25
-39 -37 -53 -20 -23 -20 -22 2 15 38 67 43 74 47 70 2 -2 -3 -16 -12 -32z
m1289 -115 l150 -103 3 -405 2 -405 -62 62 c-68 66 -149 121 -234 159 l-54 24
0 267 c0 148 3 325 7 395 5 113 8 126 22 118 9 -5 84 -56 166 -112z m545 -277
l0 -399 -42 -17 c-73 -29 -158 -86 -231 -154 l-70 -66 6 295 c4 162 7 345 7
406 l0 111 163 111 c89 61 163 111 165 112 1 0 2 -180 2 -399z m-795 318 c6
-6 11 -156 13 -383 l4 -373 60 -29 c60 -29 160 -92 123 -79 -11 4 -47 18 -80
30 -33 13 -86 28 -117 35 l-58 13 0 404 0 404 23 -6 c12 -4 26 -11 32 -16z
m915 -382 l0 -403 -72 -18 c-40 -9 -100 -28 -133 -41 l-60 -24 30 25 c17 14
60 39 96 56 l66 31 7 105 c3 58 6 228 6 379 l0 274 23 9 c12 5 25 9 30 9 4 1
7 -180 7 -402z m-1030 -76 c0 -426 -9 -383 80 -396 25 -4 61 -16 80 -27 19
-10 26 -16 15 -12 -11 4 -62 9 -112 12 l-93 4 0 393 c0 215 3 395 7 398 3 4
10 7 15 7 4 0 8 -171 8 -379z m1120 -21 l0 -400 -67 0 c-38 0 -86 -5 -108 -10
-36 -8 -38 -7 -20 6 22 16 80 34 112 34 56 0 53 -20 53 391 0 330 2 379 15
379 13 0 15 -51 15 -400z m1249 -70 c0 -13 -1 -13 -8 0 -5 8 -12 26 -15 40
l-7 25 15 -25 c9 -14 15 -32 15 -40z m-3701 -129 c-7 -31 -15 -47 -19 -39 -9
15 0 68 15 84 17 18 17 11 4 -45z m3756 -48 c4 -12 2 -24 -4 -28 -6 -4 -10 4
-10 19 0 14 -4 28 -10 31 -5 3 -10 14 -10 23 0 14 2 13 14 -3 7 -11 16 -30 20
-42z m13 -165 c-2 -13 -4 -3 -4 22 0 25 2 35 4 23 2 -13 2 -33 0 -45z m-3860
-20 c-3 -8 -6 -5 -6 6 -1 11 2 17 5 13 3 -3 4 -12 1 -19z m-17 -88 l-11 -25 6
25 c2 14 5 34 6 45 2 19 2 19 6 0 2 -12 -1 -32 -7 -45z m20 -46 c-6 -38 -14
-87 -19 -109 -7 -36 -8 -33 -8 28 0 37 4 67 8 67 4 0 11 28 16 63 4 34 9 52
11 41 2 -12 -2 -53 -8 -90z m9 -394 c0 -17 -5 -11 -15 20 -7 25 -13 72 -13
105 l1 60 13 -80 c8 -44 14 -91 14 -105z m3786 64 c-12 -24 -15 -25 -15 -8 0
11 5 25 12 32 18 18 20 8 3 -24z m-3552 -632 c3 -15 9 -36 12 -47 4 -11 -8 3
-27 30 -21 31 -30 53 -24 57 15 10 33 -8 39 -40z m180 -276 c88 -113 126 -155
171 -188 47 -34 62 -71 18 -42 -71 46 -252 253 -252 287 0 6 -12 25 -27 41
l-28 31 28 -25 c16 -14 56 -61 90 -104z m346 -303 c58 -32 113 -62 122 -68 9
-5 43 -25 75 -43 32 -18 50 -30 39 -26 -11 4 -41 11 -67 17 -26 5 -45 13 -43
18 10 15 -36 47 -98 69 -34 12 -66 28 -72 34 -5 7 -25 20 -42 30 -31 15 -41
26 -27 26 3 0 54 -26 113 -57z m359 -174 c19 -4 43 -15 54 -26 11 -10 22 -17
24 -15 2 1 17 -4 32 -11 15 -8 44 -20 65 -27 21 -6 36 -14 33 -17 -5 -5 -225
80 -266 104 l-25 14 25 -7 c14 -4 40 -10 58 -15z m1159 -175 c-3 -3 -12 -4
-19 -1 -8 3 -5 6 6 6 11 1 17 -2 13 -5z"/>
<path d="M173 4663 c-3 -10 -8 -22 -10 -28 -3 -5 3 -1 11 9 16 20 21 36 11 36
-3 0 -8 -8 -12 -17z"/>
<path d="M4802 2063 c-1 -12 -6 -25 -12 -28 -5 -3 -10 -23 -10 -43 0 -26 -14
-61 -49 -119 -54 -91 -55 -108 -3 -37 54 73 84 149 79 203 -2 25 -4 36 -5 24z"/>
<path d="M3600 940 c-9 -6 -10 -10 -3 -10 6 0 15 5 18 10 8 12 4 12 -15 0z"/>
<path d="M2915 926 c35 -17 75 -20 75 -6 0 6 -12 10 -27 10 -16 0 -39 3 -53 5
-22 5 -21 3 5 -9z"/>
<path d="M3290 913 c0 -12 6 -13 23 -8 12 5 47 7 77 7 30 -1 69 2 85 7 22 6 1
9 -77 9 -91 0 -108 -2 -108 -15z"/>
<path d="M3198 903 c6 -2 18 -2 25 0 6 3 1 5 -13 5 -14 0 -19 -2 -12 -5z"/>
</g>
</svg>
