<?xml version="1.0" standalone="no"?>
<!DOCTYPE svg PUBLIC "-//W3C//DTD SVG 20010904//EN"
 "http://www.w3.org/TR/2001/REC-SVG-20010904/DTD/svg10.dtd">
<svg version="1.0" xmlns="http://www.w3.org/2000/svg"
 width="600.000000pt" height="600.000000pt" viewBox="0 0 600.000000 600.000000"
 preserveAspectRatio="xMidYMid meet">
<metadata>
Created by potrace 1.14, written by Peter Selinger 2001-2017
</metadata>
<g transform="translate(0.000000,600.000000) scale(0.100000,-0.100000)"
fill="#000000" stroke="none">
<path d="M2901 4783 c-25 -12 -52 -23 -58 -23 -19 0 -15 18 5 23 9 2 0 4 -20
4 -20 1 -41 4 -47 8 -6 3 -9 0 -6 -7 4 -9 -3 -13 -20 -13 -14 0 -25 3 -25 7 0
8 -21 5 -37 -5 -6 -4 -18 -4 -27 -1 -9 4 -16 1 -16 -6 0 -6 -6 -10 -12 -7 -7
2 -25 0 -40 -4 -18 -5 -29 -3 -32 4 -3 8 -7 9 -13 2 -4 -6 -18 -10 -29 -9 -17
1 -20 -3 -16 -19 4 -16 1 -19 -11 -14 -9 3 -19 2 -23 -4 -3 -6 -12 -8 -20 -5
-7 3 -16 1 -20 -5 -3 -5 -14 -7 -25 -4 -11 4 -19 2 -19 -5 0 -7 -8 -9 -20 -5
-11 3 -20 3 -20 -2 0 -5 -8 -9 -17 -10 -69 -5 -193 -52 -193 -73 0 -6 -4 -9
-8 -6 -5 3 -15 -3 -23 -12 -8 -9 -28 -26 -44 -37 -16 -11 -40 -31 -53 -45 -14
-14 -21 -18 -17 -10 8 13 7 13 -11 0 -10 -8 -25 -22 -32 -30 -11 -12 -12 -12
-6 -1 13 25 -58 -30 -126 -99 -94 -93 -211 -200 -219 -200 -4 0 -15 -15 -24
-34 -9 -19 -32 -55 -52 -81 -19 -26 -33 -50 -30 -55 3 -5 0 -10 -5 -12 -6 -2
-12 -13 -13 -26 0 -12 -5 -22 -10 -22 -4 0 -5 -4 -2 -10 3 -5 2 -10 -2 -10 -5
0 -13 -9 -18 -19 -6 -11 -29 -49 -52 -86 -23 -37 -40 -76 -38 -86 2 -11 0 -19
-6 -19 -5 0 -8 -3 -7 -7 1 -5 -3 -18 -10 -30 -8 -15 -9 -23 -2 -23 18 0 11
-26 -14 -53 -13 -14 -27 -41 -31 -59 -8 -36 -32 -77 -54 -94 -8 -6 -11 -16 -7
-22 4 -7 3 -12 -3 -12 -18 0 -38 -104 -21 -115 4 -3 6 -15 3 -28 -24 -115 -45
-144 -38 -52 2 30 1 56 -3 59 -4 2 -8 -13 -10 -35 -1 -21 -8 -51 -14 -66 -11
-28 -18 -61 -21 -118 -1 -16 -8 -36 -15 -43 -6 -7 -12 -20 -12 -28 0 -8 -4
-14 -8 -14 -5 0 -10 -19 -11 -42 -2 -56 -5 -70 -16 -88 -5 -8 -8 -79 -7 -158
1 -136 15 -222 34 -222 5 0 6 -4 3 -10 -3 -5 -1 -10 5 -10 7 0 9 -7 6 -16 -3
-8 -2 -13 3 -9 5 3 17 -15 27 -40 12 -33 20 -42 29 -35 8 7 15 3 22 -13 14
-28 25 -62 21 -62 -2 -1 4 -12 14 -26 9 -14 25 -55 37 -92 11 -37 24 -75 29
-85 5 -9 12 -29 16 -44 5 -22 3 -28 -9 -28 -9 0 -13 4 -10 10 3 5 1 10 -5 10
-6 0 -9 4 -5 9 3 5 -1 16 -8 23 -8 8 -20 32 -28 53 -7 22 -19 47 -26 55 -19
21 -1 -32 72 -212 15 -37 26 -70 26 -73 -2 -6 20 -46 47 -86 49 -76 107 -154
114 -157 4 -2 8 -8 8 -13 0 -26 139 -191 154 -182 6 3 8 3 4 -2 -4 -4 -1 -13
6 -20 37 -37 309 -188 320 -178 3 4 6 1 6 -6 0 -7 4 -10 9 -6 5 3 17 -2 25
-11 9 -8 16 -12 16 -8 0 3 7 1 15 -6 8 -7 15 -9 15 -5 0 5 8 1 18 -7 22 -19
53 -32 71 -29 8 1 17 -1 20 -6 19 -25 161 -91 184 -85 4 1 7 -3 7 -9 0 -5 4
-8 9 -4 10 6 62 -14 72 -29 4 -5 10 1 14 13 4 14 12 20 21 17 39 -15 135 -36
189 -41 33 -3 69 -7 80 -9 11 -2 49 -7 85 -10 36 -4 85 -9 110 -12 179 -19
339 -25 361 -13 15 7 60 9 179 8 19 0 46 2 60 4 52 10 247 57 311 75 129 36
280 143 294 208 10 45 36 86 79 124 21 19 54 49 71 67 18 17 52 44 76 59 50
31 178 133 199 159 8 9 15 23 16 31 1 7 28 50 61 95 32 44 63 89 68 99 6 10
16 24 22 31 12 16 63 183 100 334 14 55 26 105 27 110 2 6 7 28 11 50 5 22 10
43 11 48 1 4 2 14 3 22 1 18 28 20 34 3 2 -7 3 -4 1 8 -2 12 0 24 4 28 4 4 8
16 8 27 1 10 3 21 4 24 1 3 3 8 5 13 14 51 18 61 26 56 6 -3 9 9 8 28 0 18 3
62 7 98 7 61 7 192 0 287 -2 23 -11 49 -20 58 -9 9 -16 25 -16 35 0 10 -7 31
-15 46 -16 32 -19 54 -7 54 10 0 5 92 -5 99 -5 3 -10 15 -11 26 -2 11 -8 22
-13 23 -5 2 -7 8 -4 13 3 5 -4 22 -16 38 -12 16 -19 36 -16 45 3 8 2 18 -4 21
-5 4 -7 11 -4 16 4 5 1 9 -4 9 -6 0 -11 14 -11 31 0 17 -6 37 -14 44 -11 12
-47 132 -47 157 1 39 -101 205 -154 253 -6 6 -28 31 -48 57 -20 25 -50 52 -67
60 -16 7 -30 16 -30 20 0 5 -5 8 -10 8 -6 0 -38 27 -71 60 -33 33 -57 55 -53
48 10 -17 -24 9 -49 37 -10 11 -16 13 -12 5 4 -8 -1 -6 -9 5 -9 11 -14 25 -11
33 3 8 0 10 -7 6 -17 -11 -59 -13 -53 -4 3 5 -12 21 -35 36 -22 15 -40 31 -40
35 0 13 13 11 38 -7 12 -8 27 -14 32 -12 11 3 -83 68 -103 72 -7 1 -29 10 -51
19 -21 9 -43 17 -48 17 -5 0 -6 4 -3 10 3 6 -1 7 -9 4 -9 -3 -16 -1 -16 6 0 6
-10 11 -22 9 -26 -2 -128 41 -128 54 0 4 4 6 9 2 5 -3 12 -1 16 5 6 9 -7 14
-27 11 -5 0 -8 4 -8 10 0 5 -4 7 -10 4 -5 -3 -10 -1 -10 5 0 6 -5 8 -11 4 -6
-3 -14 -3 -18 2 -11 16 -52 35 -61 29 -6 -4 -10 -1 -10 5 0 6 -6 10 -12 9 -7
-1 -31 6 -53 15 -21 10 -53 19 -70 21 -16 1 -42 8 -57 15 -20 10 -31 10 -41 2
-14 -12 -35 -10 -79 7 -16 6 -28 7 -28 4 0 -4 -5 -2 -12 5 -7 7 -27 12 -46 12
-18 0 -31 4 -28 9 6 10 -112 24 -223 26 -58 1 -83 -4 -120 -22z"/>
<path d="M4927 3244 c-7 -7 13 -54 23 -54 9 0 0 49 -10 55 -4 2 -10 2 -13 -1z"/>
<path d="M4951 3164 c0 -11 3 -14 6 -6 3 7 2 16 -1 19 -3 4 -6 -2 -5 -13z"/>
<path d="M4925 2458 c-4 -18 -8 -35 -9 -38 -1 -3 -5 -11 -9 -18 -5 -7 -7 -22
-6 -35 2 -12 0 -28 -4 -34 -5 -7 -4 -20 1 -29 9 -16 18 21 37 144 8 50 1 56
-10 10z"/>
<path d="M4860 2281 c0 -16 -7 -48 -16 -72 -24 -66 -26 -89 -10 -104 12 -12
15 -8 24 28 6 23 7 46 3 50 -5 5 -5 23 0 40 15 57 18 87 8 87 -5 0 -9 -13 -9
-29z"/>
<path d="M1150 2280 c0 -5 5 -10 11 -10 5 0 7 5 4 10 -3 6 -8 10 -11 10 -2 0
-4 -4 -4 -10z"/>
<path d="M1161 2244 c0 -11 3 -14 6 -6 3 7 2 16 -1 19 -3 4 -6 -2 -5 -13z"/>
<path d="M4795 2030 c-3 -5 -8 -29 -10 -52 -5 -52 11 -31 18 25 5 38 3 45 -8
27z"/>
<path d="M4750 1894 c0 -8 5 -12 10 -9 6 3 10 10 10 16 0 5 -4 9 -10 9 -5 0
-10 -7 -10 -16z"/>
<path d="M2490 1002 c0 -9 24 -18 75 -28 11 -2 53 -12 93 -22 40 -10 75 -15
77 -12 3 4 -10 11 -28 15 -17 4 -36 9 -42 10 -13 4 -50 13 -100 24 -22 5 -48
12 -57 16 -10 4 -18 3 -18 -3z"/>
<path d="M2950 926 c0 -2 7 -7 16 -10 8 -3 12 -2 9 4 -6 10 -25 14 -25 6z"/>
<path d="M3300 920 c-12 -8 -10 -10 8 -10 13 0 20 4 17 10 -7 12 -6 12 -25 0z"/>
</g>
</svg>
